<mxfile host="app.diagrams.net" modified="2024-06-21T14:52:10.610Z" agent="Mozilla/5.0 (Windows NT 10.0; Win64; x64) AppleWebKit/537.36 (KHTML, like Gecko) Chrome/126.0.0.0 Safari/537.36 Edg/126.0.0.0" etag="rE_OHMfxF4e4FAhyrUjM" version="24.6.1" type="google">
  <diagram name="Page-1" id="Zr2tybDH_GIVGgKP7OE-">
    <mxGraphModel grid="1" page="1" gridSize="10" guides="1" tooltips="1" connect="1" arrows="1" fold="1" pageScale="1" pageWidth="827" pageHeight="1169" math="0" shadow="0">
      <root>
        <mxCell id="0" />
        <mxCell id="1" parent="0" />
        <mxCell id="LD9MMlu1tyv8-tvjZ2ai-3" style="edgeStyle=orthogonalEdgeStyle;rounded=0;orthogonalLoop=1;jettySize=auto;html=1;exitX=0.5;exitY=1;exitDx=0;exitDy=0;exitPerimeter=0;entryX=0.5;entryY=0;entryDx=0;entryDy=0;" edge="1" parent="1" source="LD9MMlu1tyv8-tvjZ2ai-1" target="LD9MMlu1tyv8-tvjZ2ai-2">
          <mxGeometry relative="1" as="geometry" />
        </mxCell>
        <mxCell id="LD9MMlu1tyv8-tvjZ2ai-1" value="&lt;font style=&quot;font-size: 20px;&quot;&gt;Start&lt;/font&gt;" style="strokeWidth=2;html=1;shape=mxgraph.flowchart.start_1;whiteSpace=wrap;fillColor=#ffe6cc;strokeColor=#d79b00;" vertex="1" parent="1">
          <mxGeometry x="364" y="10" width="100" height="60" as="geometry" />
        </mxCell>
        <mxCell id="LD9MMlu1tyv8-tvjZ2ai-5" style="edgeStyle=orthogonalEdgeStyle;rounded=0;orthogonalLoop=1;jettySize=auto;html=1;exitX=0.5;exitY=1;exitDx=0;exitDy=0;entryX=0.5;entryY=0;entryDx=0;entryDy=0;" edge="1" parent="1" source="LD9MMlu1tyv8-tvjZ2ai-2" target="LD9MMlu1tyv8-tvjZ2ai-4">
          <mxGeometry relative="1" as="geometry" />
        </mxCell>
        <mxCell id="LD9MMlu1tyv8-tvjZ2ai-2" value="Enter Radius" style="shape=parallelogram;html=1;strokeWidth=2;perimeter=parallelogramPerimeter;whiteSpace=wrap;rounded=1;arcSize=12;size=0.23;fillColor=#dae8fc;strokeColor=#6c8ebf;fontSize=15;" vertex="1" parent="1">
          <mxGeometry x="314" y="100" width="200" height="60" as="geometry" />
        </mxCell>
        <mxCell id="LD9MMlu1tyv8-tvjZ2ai-7" style="edgeStyle=orthogonalEdgeStyle;rounded=0;orthogonalLoop=1;jettySize=auto;html=1;exitX=0.5;exitY=1;exitDx=0;exitDy=0;entryX=0.5;entryY=0;entryDx=0;entryDy=0;" edge="1" parent="1" source="LD9MMlu1tyv8-tvjZ2ai-4" target="LD9MMlu1tyv8-tvjZ2ai-6">
          <mxGeometry relative="1" as="geometry" />
        </mxCell>
        <mxCell id="LD9MMlu1tyv8-tvjZ2ai-4" value="circumference = 2 * 3.1416 * radius" style="rounded=1;whiteSpace=wrap;html=1;absoluteArcSize=1;arcSize=14;strokeWidth=2;fillColor=#e1d5e7;strokeColor=#9673a6;" vertex="1" parent="1">
          <mxGeometry x="314" y="190" width="200" height="50" as="geometry" />
        </mxCell>
        <mxCell id="LD9MMlu1tyv8-tvjZ2ai-6" value="area = 3.1416 * radius * radius" style="rounded=1;whiteSpace=wrap;html=1;absoluteArcSize=1;arcSize=14;strokeWidth=2;fillColor=#e1d5e7;strokeColor=#9673a6;" vertex="1" parent="1">
          <mxGeometry x="314" y="270" width="200" height="50" as="geometry" />
        </mxCell>
        <mxCell id="LD9MMlu1tyv8-tvjZ2ai-14" style="edgeStyle=orthogonalEdgeStyle;rounded=0;orthogonalLoop=1;jettySize=auto;html=1;exitX=1;exitY=0.5;exitDx=0;exitDy=0;exitPerimeter=0;entryX=0.5;entryY=0;entryDx=0;entryDy=0;" edge="1" parent="1" source="LD9MMlu1tyv8-tvjZ2ai-8" target="LD9MMlu1tyv8-tvjZ2ai-12">
          <mxGeometry relative="1" as="geometry" />
        </mxCell>
        <mxCell id="LD9MMlu1tyv8-tvjZ2ai-8" value="is&lt;br&gt;area&amp;gt;100?&lt;div&gt;&lt;br/&gt;&lt;/div&gt;" style="strokeWidth=2;html=1;shape=mxgraph.flowchart.decision;whiteSpace=wrap;fillColor=#d5e8d4;strokeColor=#82b366;" vertex="1" parent="1">
          <mxGeometry x="364" y="350" width="100" height="100" as="geometry" />
        </mxCell>
        <mxCell id="LD9MMlu1tyv8-tvjZ2ai-9" style="edgeStyle=orthogonalEdgeStyle;rounded=0;orthogonalLoop=1;jettySize=auto;html=1;exitX=0.5;exitY=1;exitDx=0;exitDy=0;entryX=0.5;entryY=0;entryDx=0;entryDy=0;entryPerimeter=0;" edge="1" parent="1" source="LD9MMlu1tyv8-tvjZ2ai-6" target="LD9MMlu1tyv8-tvjZ2ai-8">
          <mxGeometry relative="1" as="geometry" />
        </mxCell>
        <mxCell id="LD9MMlu1tyv8-tvjZ2ai-16" style="edgeStyle=orthogonalEdgeStyle;rounded=0;orthogonalLoop=1;jettySize=auto;html=1;exitX=0.5;exitY=1;exitDx=0;exitDy=0;exitPerimeter=0;" edge="1" parent="1" source="LD9MMlu1tyv8-tvjZ2ai-10" target="LD9MMlu1tyv8-tvjZ2ai-15">
          <mxGeometry relative="1" as="geometry" />
        </mxCell>
        <mxCell id="LD9MMlu1tyv8-tvjZ2ai-18" style="edgeStyle=orthogonalEdgeStyle;rounded=0;orthogonalLoop=1;jettySize=auto;html=1;exitX=0;exitY=0.5;exitDx=0;exitDy=0;exitPerimeter=0;entryX=0.5;entryY=0;entryDx=0;entryDy=0;" edge="1" parent="1" source="LD9MMlu1tyv8-tvjZ2ai-10" target="LD9MMlu1tyv8-tvjZ2ai-17">
          <mxGeometry relative="1" as="geometry" />
        </mxCell>
        <mxCell id="LD9MMlu1tyv8-tvjZ2ai-10" value="is&lt;br&gt;area&amp;lt;50?&lt;div&gt;&lt;br&gt;&lt;/div&gt;" style="strokeWidth=2;html=1;shape=mxgraph.flowchart.decision;whiteSpace=wrap;fillColor=#d5e8d4;strokeColor=#82b366;" vertex="1" parent="1">
          <mxGeometry x="364" y="484.5" width="100" height="100" as="geometry" />
        </mxCell>
        <mxCell id="LD9MMlu1tyv8-tvjZ2ai-11" style="edgeStyle=orthogonalEdgeStyle;rounded=0;orthogonalLoop=1;jettySize=auto;html=1;exitX=0.5;exitY=1;exitDx=0;exitDy=0;exitPerimeter=0;entryX=0.5;entryY=0;entryDx=0;entryDy=0;entryPerimeter=0;" edge="1" parent="1" source="LD9MMlu1tyv8-tvjZ2ai-8" target="LD9MMlu1tyv8-tvjZ2ai-10">
          <mxGeometry relative="1" as="geometry" />
        </mxCell>
        <mxCell id="LD9MMlu1tyv8-tvjZ2ai-12" value="Print &quot;Too large&quot;" style="shape=parallelogram;html=1;strokeWidth=2;perimeter=parallelogramPerimeter;whiteSpace=wrap;rounded=1;arcSize=12;size=0.23;fillColor=#dae8fc;strokeColor=#6c8ebf;fontSize=15;" vertex="1" parent="1">
          <mxGeometry x="514" y="504.5" width="200" height="60" as="geometry" />
        </mxCell>
        <mxCell id="LD9MMlu1tyv8-tvjZ2ai-15" value="Print &quot;Perfect&quot;" style="shape=parallelogram;html=1;strokeWidth=2;perimeter=parallelogramPerimeter;whiteSpace=wrap;rounded=1;arcSize=12;size=0.23;fillColor=#dae8fc;strokeColor=#6c8ebf;fontSize=15;" vertex="1" parent="1">
          <mxGeometry x="314" y="610" width="200" height="60" as="geometry" />
        </mxCell>
        <mxCell id="LD9MMlu1tyv8-tvjZ2ai-17" value="&lt;font style=&quot;font-size: 15px;&quot;&gt;Print &quot;Too small&quot;&lt;/font&gt;" style="shape=parallelogram;html=1;strokeWidth=2;perimeter=parallelogramPerimeter;whiteSpace=wrap;rounded=1;arcSize=12;size=0.23;fillColor=#dae8fc;strokeColor=#6c8ebf;" vertex="1" parent="1">
          <mxGeometry x="114" y="610" width="200" height="60" as="geometry" />
        </mxCell>
        <mxCell id="LD9MMlu1tyv8-tvjZ2ai-19" value="Yes" style="text;html=1;align=center;verticalAlign=middle;whiteSpace=wrap;rounded=0;" vertex="1" parent="1">
          <mxGeometry x="454" y="370" width="60" height="30" as="geometry" />
        </mxCell>
        <mxCell id="LD9MMlu1tyv8-tvjZ2ai-20" value="Yes" style="text;html=1;align=center;verticalAlign=middle;whiteSpace=wrap;rounded=0;" vertex="1" parent="1">
          <mxGeometry x="314" y="504.5" width="60" height="30" as="geometry" />
        </mxCell>
        <mxCell id="LD9MMlu1tyv8-tvjZ2ai-21" value="No" style="text;html=1;align=center;verticalAlign=middle;whiteSpace=wrap;rounded=0;" vertex="1" parent="1">
          <mxGeometry x="404" y="580" width="60" height="30" as="geometry" />
        </mxCell>
        <mxCell id="LD9MMlu1tyv8-tvjZ2ai-22" value="No" style="text;html=1;align=center;verticalAlign=middle;whiteSpace=wrap;rounded=0;" vertex="1" parent="1">
          <mxGeometry x="404" y="450" width="60" height="30" as="geometry" />
        </mxCell>
        <mxCell id="LD9MMlu1tyv8-tvjZ2ai-30" style="edgeStyle=orthogonalEdgeStyle;rounded=0;orthogonalLoop=1;jettySize=auto;html=1;exitX=0.5;exitY=1;exitDx=0;exitDy=0;exitPerimeter=0;entryX=0.5;entryY=0;entryDx=0;entryDy=0;" edge="1" parent="1" source="LD9MMlu1tyv8-tvjZ2ai-24" target="LD9MMlu1tyv8-tvjZ2ai-29">
          <mxGeometry relative="1" as="geometry" />
        </mxCell>
        <mxCell id="LD9MMlu1tyv8-tvjZ2ai-24" value="" style="verticalLabelPosition=bottom;verticalAlign=top;html=1;shape=mxgraph.flowchart.on-page_reference;fillColor=#f8cecc;strokeColor=#b85450;" vertex="1" parent="1">
          <mxGeometry x="384" y="700" width="60" height="60" as="geometry" />
        </mxCell>
        <mxCell id="LD9MMlu1tyv8-tvjZ2ai-25" style="edgeStyle=orthogonalEdgeStyle;rounded=0;orthogonalLoop=1;jettySize=auto;html=1;exitX=0.5;exitY=1;exitDx=0;exitDy=0;entryX=0.5;entryY=0;entryDx=0;entryDy=0;entryPerimeter=0;" edge="1" parent="1" source="LD9MMlu1tyv8-tvjZ2ai-15" target="LD9MMlu1tyv8-tvjZ2ai-24">
          <mxGeometry relative="1" as="geometry" />
        </mxCell>
        <mxCell id="LD9MMlu1tyv8-tvjZ2ai-27" style="edgeStyle=orthogonalEdgeStyle;rounded=0;orthogonalLoop=1;jettySize=auto;html=1;exitX=0.5;exitY=1;exitDx=0;exitDy=0;entryX=0;entryY=0.5;entryDx=0;entryDy=0;entryPerimeter=0;" edge="1" parent="1" source="LD9MMlu1tyv8-tvjZ2ai-17" target="LD9MMlu1tyv8-tvjZ2ai-24">
          <mxGeometry relative="1" as="geometry" />
        </mxCell>
        <mxCell id="LD9MMlu1tyv8-tvjZ2ai-28" style="edgeStyle=orthogonalEdgeStyle;rounded=0;orthogonalLoop=1;jettySize=auto;html=1;exitX=0.5;exitY=1;exitDx=0;exitDy=0;entryX=1;entryY=0.5;entryDx=0;entryDy=0;entryPerimeter=0;" edge="1" parent="1" source="LD9MMlu1tyv8-tvjZ2ai-12" target="LD9MMlu1tyv8-tvjZ2ai-24">
          <mxGeometry relative="1" as="geometry" />
        </mxCell>
        <mxCell id="LD9MMlu1tyv8-tvjZ2ai-32" style="edgeStyle=orthogonalEdgeStyle;rounded=0;orthogonalLoop=1;jettySize=auto;html=1;exitX=0.5;exitY=1;exitDx=0;exitDy=0;entryX=0.5;entryY=0;entryDx=0;entryDy=0;" edge="1" parent="1" source="LD9MMlu1tyv8-tvjZ2ai-29" target="LD9MMlu1tyv8-tvjZ2ai-31">
          <mxGeometry relative="1" as="geometry" />
        </mxCell>
        <mxCell id="LD9MMlu1tyv8-tvjZ2ai-29" value="Print &quot;circumference&quot;" style="shape=parallelogram;html=1;strokeWidth=2;perimeter=parallelogramPerimeter;whiteSpace=wrap;rounded=1;arcSize=12;size=0.23;fillColor=#dae8fc;strokeColor=#6c8ebf;fontSize=14;" vertex="1" parent="1">
          <mxGeometry x="314" y="790" width="200" height="60" as="geometry" />
        </mxCell>
        <mxCell id="LD9MMlu1tyv8-tvjZ2ai-31" value="Print &quot;area&quot;" style="shape=parallelogram;html=1;strokeWidth=2;perimeter=parallelogramPerimeter;whiteSpace=wrap;rounded=1;arcSize=12;size=0.23;fillColor=#dae8fc;strokeColor=#6c8ebf;fontSize=15;" vertex="1" parent="1">
          <mxGeometry x="314" y="880" width="200" height="60" as="geometry" />
        </mxCell>
        <mxCell id="LD9MMlu1tyv8-tvjZ2ai-33" value="&lt;font style=&quot;font-size: 20px;&quot;&gt;End&lt;/font&gt;" style="strokeWidth=2;html=1;shape=mxgraph.flowchart.start_1;whiteSpace=wrap;fillColor=#ffe6cc;strokeColor=#d79b00;" vertex="1" parent="1">
          <mxGeometry x="364" y="970" width="100" height="60" as="geometry" />
        </mxCell>
        <mxCell id="LD9MMlu1tyv8-tvjZ2ai-35" style="edgeStyle=orthogonalEdgeStyle;rounded=0;orthogonalLoop=1;jettySize=auto;html=1;exitX=0.5;exitY=1;exitDx=0;exitDy=0;entryX=0.5;entryY=0;entryDx=0;entryDy=0;entryPerimeter=0;" edge="1" parent="1" source="LD9MMlu1tyv8-tvjZ2ai-31" target="LD9MMlu1tyv8-tvjZ2ai-33">
          <mxGeometry relative="1" as="geometry" />
        </mxCell>
      </root>
    </mxGraphModel>
  </diagram>
</mxfile>
